<?xml version="1.0" encoding="UTF-8"?>
<svg width="40px" height="40px" viewBox="0 0 40 40" version="1.1" xmlns="http://www.w3.org/2000/svg">
    <g stroke="none" stroke-width="1" fill="#A14E2D" fill-rule="evenodd">
        <path d="M35,5 L5,5 C3.895,5 3,5.895 3,7 L3,33 C3,34.105 3.895,35 5,35 L35,35 C36.105,35 37,34.105 37,33 L37,7 C37,5.895 36.105,5 35,5 Z M35,33 L5,33 L5,7 L35,7 L35,33 Z M11,11 L29,11 C29.552,11 30,10.552 30,10 C30,9.448 29.552,9 29,9 L11,9 C10.448,9 10,9.448 10,10 C10,10.552 10.448,11 11,11 Z M11,15 L29,15 C29.552,15 30,14.552 30,14 C30,13.448 29.552,13 29,13 L11,13 C10.448,13 10,13.448 10,14 C10,14.552 10.448,15 11,15 Z M11,19 L29,19 C29.552,19 30,18.552 30,18 C30,17.448 29.552,17 29,17 L11,17 C10.448,17 10,17.448 10,18 C10,18.552 10.448,19 11,19 Z M11,23 L29,23 C29.552,23 30,22.552 30,22 C30,21.448 29.552,21 29,21 L11,21 C10.448,21 10,21.448 10,22 C10,22.552 10.448,23 11,23 Z M11,27 L19,27 C19.552,27 20,26.552 20,26 C20,25.448 19.552,25 19,25 L11,25 C10.448,25 10,25.448 10,26 C10,26.552 10.448,27 11,27 Z M29,25 L23,25 C22.448,25 22,25.448 22,26 C22,26.552 22.448,27 23,27 L29,27 C29.552,27 30,26.552 30,26 C30,25.448 29.552,25 29,25 Z M11,31 L15,31 C15.552,31 16,30.552 16,30 C16,29.448 15.552,29 15,29 L11,29 C10.448,29 10,29.448 10,30 C10,30.552 10.448,31 11,31 Z M29,29 L19,29 C18.448,29 18,29.448 18,30 C18,30.552 18.448,31 19,31 L29,31 C29.552,31 30,30.552 30,30 C30,29.448 29.552,29 29,29 Z"></path>
    </g>
</svg>
