<?xml version="1.0" encoding="UTF-8"?>
<svg width="40px" height="40px" viewBox="0 0 40 40" version="1.1" xmlns="http://www.w3.org/2000/svg">
    <g stroke="none" stroke-width="1" fill="#A14E2D" fill-rule="evenodd">
        <path d="M11,14 C13.757,14 16,11.757 16,9 C16,6.243 13.757,4 11,4 C8.243,4 6,6.243 6,9 C6,11.757 8.243,14 11,14 Z M11,6 C12.654,6 14,7.346 14,9 C14,10.654 12.654,12 11,12 C9.346,12 8,10.654 8,9 C8,7.346 9.346,6 11,6 Z M11,16 C7.141,16 4,19.141 4,23 C4,23.552 4.448,24 5,24 L17,24 C17.552,24 18,23.552 18,23 C18,19.141 14.859,16 11,16 Z M6.176,22 C6.58,19.835 8.582,18 11,18 C13.418,18 15.42,19.835 15.824,22 L6.176,22 Z M29,14 C31.757,14 34,11.757 34,9 C34,6.243 31.757,4 29,4 C26.243,4 24,6.243 24,9 C24,11.757 26.243,14 29,14 Z M29,6 C30.654,6 32,7.346 32,9 C32,10.654 30.654,12 29,12 C27.346,12 26,10.654 26,9 C26,7.346 27.346,6 29,6 Z M29,16 C25.141,16 22,19.141 22,23 C22,23.552 22.448,24 23,24 L35,24 C35.552,24 36,23.552 36,23 C36,19.141 32.859,16 29,16 Z M24.176,22 C24.58,19.835 26.582,18 29,18 C31.418,18 33.42,19.835 33.824,22 L24.176,22 Z M20,26 C17.243,26 15,28.243 15,31 C15,33.757 17.243,36 20,36 C22.757,36 25,33.757 25,31 C25,28.243 22.757,26 20,26 Z M20,34 C18.346,34 17,32.654 17,31 C17,29.346 18.346,28 20,28 C21.654,28 23,29.346 23,31 C23,32.654 21.654,34 20,34 Z M20,38 C16.141,38 13,41.141 13,45 C13,45.552 13.448,46 14,46 L26,46 C26.552,46 27,45.552 27,45 C27,41.141 23.859,38 20,38 Z M15.176,44 C15.58,41.835 17.582,40 20,40 C22.418,40 24.42,41.835 24.824,44 L15.176,44 Z"></path>
    </g>
</svg>
