<?xml version="1.0" encoding="UTF-8"?>
<svg width="40px" height="40px" viewBox="0 0 40 40" version="1.1" xmlns="http://www.w3.org/2000/svg">
    <g stroke="none" stroke-width="1" fill="#A14E2D" fill-rule="evenodd">
        <path d="M33,5 L7,5 C5.895,5 5,5.895 5,7 L5,33 C5,34.105 5.895,35 7,35 L33,35 C34.105,35 35,34.105 35,33 L35,7 C35,5.895 34.105,5 33,5 Z M33,33 L7,33 L7,13 L33,13 L33,33 Z M33,11 L7,11 L7,7 L33,7 L33,11 Z M11,9 C11.552,9 12,8.552 12,8 C12,7.448 11.552,7 11,7 C10.448,7 10,7.448 10,8 C10,8.552 10.448,9 11,9 Z M15,9 C15.552,9 16,8.552 16,8 C16,7.448 15.552,7 15,7 C14.448,7 14,7.448 14,8 C14,8.552 14.448,9 15,9 Z M19,9 C19.552,9 20,8.552 20,8 C20,7.448 19.552,7 19,7 C18.448,7 18,7.448 18,8 C18,8.552 18.448,9 19,9 Z M20,17 C17.794,17 16,18.794 16,21 C16,23.206 17.794,25 20,25 C22.206,25 24,23.206 24,21 C24,18.794 22.206,17 20,17 Z M20,23 C18.897,23 18,22.103 18,21 C18,19.897 18.897,19 20,19 C21.103,19 22,19.897 22,21 C22,22.103 21.103,23 20,23 Z M20,15 C23.314,15 26,17.686 26,21 C26,24.314 23.314,27 20,27 C16.686,27 14,24.314 14,21 C14,17.686 16.686,15 20,15 Z M20,25 C22.206,25 24,23.206 24,21 C24,18.794 22.206,17 20,17 C17.794,17 16,18.794 16,21 C16,23.206 17.794,25 20,25 Z M27,20 L31,20 L31,22 L27,22 L27,20 Z M9,20 L13,20 L13,22 L9,22 L9,20 Z M19,27 L21,27 L21,31 L19,31 L19,27 Z M19,11 L21,11 L21,15 L19,15 L19,11 Z"></path>
    </g>
</svg>
