<?xml version="1.0" encoding="UTF-8"?>
<svg width="40px" height="40px" viewBox="0 0 40 40" version="1.1" xmlns="http://www.w3.org/2000/svg">
    <g stroke="none" stroke-width="1" fill="#A14E2D" fill-rule="evenodd">
        <path d="M35,32 L5,32 C4.448,32 4,32.448 4,33 C4,33.552 4.448,34 5,34 L35,34 C35.552,34 36,33.552 36,33 C36,32.448 35.552,32 35,32 Z M7,26 L11,26 C11.552,26 12,25.552 12,25 L12,15 C12,14.448 11.552,14 11,14 L7,14 C6.448,14 6,14.448 6,15 L6,25 C6,25.552 6.448,26 7,26 Z M8,16 L10,16 L10,24 L8,24 L8,16 Z M15,26 L19,26 C19.552,26 20,25.552 20,25 L20,9 C20,8.448 19.552,8 19,8 L15,8 C14.448,8 14,8.448 14,9 L14,25 C14,25.552 14.448,26 15,26 Z M16,10 L18,10 L18,24 L16,24 L16,10 Z M23,26 L27,26 C27.552,26 28,25.552 28,25 L28,12 C28,11.448 27.552,11 27,11 L23,11 C22.448,11 22,11.448 22,12 L22,25 C22,25.552 22.448,26 23,26 Z M24,13 L26,13 L26,24 L24,24 L24,13 Z M31,26 L35,26 C35.552,26 36,25.552 36,25 L36,6 C36,5.448 35.552,5 35,5 L31,5 C30.448,5 30,5.448 30,6 L30,25 C30,25.552 30.448,26 31,26 Z M32,7 L34,7 L34,24 L32,24 L32,7 Z"></path>
    </g>
</svg>
