<?xml version="1.0" encoding="UTF-8"?>
<svg width="40px" height="40px" viewBox="0 0 40 40" version="1.1" xmlns="http://www.w3.org/2000/svg">
    <g stroke="none" stroke-width="1" fill="#A14E2D" fill-rule="evenodd">
        <path d="M20,7 C21.657,7 23,5.657 23,4 C23,2.343 21.657,1 20,1 C18.343,1 17,2.343 17,4 C17,5.657 18.343,7 20,7 Z M20,3 C20.552,3 21,3.448 21,4 C21,4.552 20.552,5 20,5 C19.448,5 19,4.552 19,4 C19,3.448 19.448,3 20,3 Z M31,18 L25,18 L25,12 C25,11.448 24.552,11 24,11 L16,11 C15.448,11 15,11.448 15,12 L15,18 L9,18 C8.448,18 8,18.448 8,19 C8,19.552 8.448,20 9,20 L15,20 L15,36 C15,36.552 15.448,37 16,37 C16.552,37 17,36.552 17,36 L17,20 L23,20 L23,36 C23,36.552 23.448,37 24,37 C24.552,37 25,36.552 25,36 L25,20 L31,20 C31.552,20 32,19.552 32,19 C32,18.448 31.552,18 31,18 Z M23,18 L17,18 L17,13 L23,13 L23,18 Z"></path>
    </g>
</svg>
