<?xml version="1.0" encoding="UTF-8"?>
<svg width="40px" height="40px" viewBox="0 0 40 40" version="1.1" xmlns="http://www.w3.org/2000/svg">
    <g stroke="none" stroke-width="1" fill="#A14E2D" fill-rule="evenodd">
        <path d="M35,15 L31,15 L31,7 C31,5.895 30.105,5 29,5 L11,5 C9.895,5 9,5.895 9,7 L9,15 L5,15 C3.895,15 3,15.895 3,17 L3,33 C3,34.105 3.895,35 5,35 L35,35 C36.105,35 37,34.105 37,33 L37,17 C37,15.895 36.105,15 35,15 Z M11,7 L29,7 L29,15 L27,15 L27,11 C27,9.895 26.105,9 25,9 L15,9 C13.895,9 13,9.895 13,11 L13,15 L11,15 L11,7 Z M15,11 L25,11 L25,15 L15,15 L15,11 Z M35,33 L5,33 L5,17 L35,17 L35,33 Z M20,19 C17.794,19 16,20.794 16,23 C16,25.206 17.794,27 20,27 C22.206,27 24,25.206 24,23 C24,20.794 22.206,19 20,19 Z M20,25 C18.897,25 18,24.103 18,23 C18,21.897 18.897,21 20,21 C21.103,21 22,21.897 22,23 C22,24.103 21.103,25 20,25 Z"></path>
    </g>
</svg>
