<?xml version="1.0" encoding="UTF-8"?>
<svg width="40px" height="40px" viewBox="0 0 40 40" version="1.1" xmlns="http://www.w3.org/2000/svg">
    <g stroke="none" stroke-width="1" fill="#A14E2D" fill-rule="evenodd">
        <path d="M20,3 C10.059,3 2,11.059 2,21 C2,30.941 10.059,39 20,39 C29.941,39 38,30.941 38,21 C38,11.059 29.941,3 20,3 Z M20,37 C11.163,37 4,29.837 4,21 C4,12.163 11.163,5 20,5 C28.837,5 36,12.163 36,21 C36,29.837 28.837,37 20,37 Z M20,9 C15.038,9 11,13.038 11,18 C11,22.962 15.038,27 20,27 C24.962,27 29,22.962 29,18 C29,13.038 24.962,9 20,9 Z M20,25 C16.141,25 13,21.859 13,18 C13,14.141 16.141,11 20,11 C23.859,11 27,14.141 27,18 C27,21.859 23.859,25 20,25 Z M20,13 C17.243,13 15,15.243 15,18 C15,20.757 17.243,23 20,23 C22.757,23 25,20.757 25,18 C25,15.243 22.757,13 20,13 Z M20,21 C18.346,21 17,19.654 17,18 C17,16.346 18.346,15 20,15 C21.654,15 23,16.346 23,18 C23,19.654 21.654,21 20,21 Z M20,17 C19.449,17 19,17.449 19,18 C19,18.551 19.449,19 20,19 C20.551,19 21,18.551 21,18 C21,17.449 20.551,17 20,17 Z"></path>
    </g>
</svg>
