<?xml version="1.0" encoding="UTF-8"?>
<svg width="40px" height="40px" viewBox="0 0 40 40" version="1.1" xmlns="http://www.w3.org/2000/svg">
    <g stroke="none" stroke-width="1" fill="#A14E2D" fill-rule="evenodd">
        <path d="M32,5 L8,5 C6.346,5 5,6.346 5,8 L5,24 C5,25.654 6.346,27 8,27 L13,27 L13,33.625 C13,34.177 13.448,34.625 14,34.625 C14.18,34.625 14.356,34.577 14.513,34.486 L23.6,29 L32,29 C33.654,29 35,27.654 35,26 L35,8 C35,6.346 33.654,5 32,5 Z M33,26 C33,26.551 32.551,27 32,27 L23.4,27 C23.22,27 23.044,27.048 22.887,27.139 L15,32 L15,28 C15,27.448 14.552,27 14,27 L8,27 C7.449,27 7,26.551 7,26 L7,8 C7,7.449 7.449,7 8,7 L32,7 C32.551,7 33,7.449 33,8 L33,26 Z M12,15 C12,13.346 13.346,12 15,12 C16.654,12 18,13.346 18,15 C18,16.654 16.654,18 15,18 C13.346,18 12,16.654 12,15 Z M14,15 C14,15.551 14.449,16 15,16 C15.551,16 16,15.551 16,15 C16,14.449 15.551,14 15,14 C14.449,14 14,14.449 14,15 Z M20,15 C20,13.346 21.346,12 23,12 C24.654,12 26,13.346 26,15 C26,16.654 24.654,18 23,18 C21.346,18 20,16.654 20,15 Z M22,15 C22,15.551 22.449,16 23,16 C23.551,16 24,15.551 24,15 C24,14.449 23.551,14 23,14 C22.449,14 22,14.449 22,15 Z M28,15 C28,13.346 29.346,12 31,12 C32.654,12 34,13.346 34,15 C34,16.654 32.654,18 31,18 C29.346,18 28,16.654 28,15 Z M30,15 C30,15.551 30.449,16 31,16 C31.551,16 32,15.551 32,15 C32,14.449 31.551,14 31,14 C30.449,14 30,14.449 30,15 Z"></path>
    </g>
</svg>
