<?xml version="1.0" encoding="UTF-8"?>
<svg width="40px" height="40px" viewBox="0 0 40 40" version="1.1" xmlns="http://www.w3.org/2000/svg">
    <g stroke="none" stroke-width="1" fill="#A14E2D" fill-rule="evenodd">
        <path d="M36,15 L36,28 C36,28.552 35.552,29 35,29 C34.448,29 34,28.552 34,28 L34,16.618 L20,23.618 L3.447,14.895 C3.166,14.754 3,14.465 3,14.152 C3,13.839 3.166,13.55 3.447,13.409 L19.447,4.409 C19.786,4.239 20.214,4.239 20.553,4.409 L36.553,13.409 C36.834,13.55 37,13.839 37,14.152 C37,14.465 36.834,14.754 36.553,14.895 L36,15.152 L36,15 Z M20,21.382 L32.764,15 L20,8.618 L7.236,15 L20,21.382 Z M28,18.08 L28,25 C28,27.757 24.411,30 20,30 C15.589,30 12,27.757 12,25 L12,18.08 L13.547,18.895 C13.828,19.036 14,19.326 14,19.638 L14,25 C14,26.252 16.691,28 20,28 C23.309,28 26,26.252 26,25 L26,19.638 C26,19.326 26.172,19.036 26.453,18.895 L28,18.08 Z M20,26 C17.794,26 16,25.252 16,24 C16,22.748 17.794,22 20,22 C22.206,22 24,22.748 24,24 C24,25.252 22.206,26 20,26 Z M20,24 C21.084,24 22,23.879 22,24 C22,24.121 21.084,24 20,24 C18.916,24 18,24.121 18,24 C18,23.879 18.916,24 20,24 Z"></path>
    </g>
</svg>
