<?xml version="1.0" encoding="UTF-8"?>
<svg width="40px" height="40px" viewBox="0 0 40 40" version="1.1" xmlns="http://www.w3.org/2000/svg">
    <g stroke="none" stroke-width="1" fill="#A14E2D" fill-rule="evenodd">
        <path d="M35,5 L5,5 C3.895,5 3,5.895 3,7 L3,27 C3,28.105 3.895,29 5,29 L15,29 L15,33 L12,33 C11.448,33 11,33.448 11,34 C11,34.552 11.448,35 12,35 L28,35 C28.552,35 29,34.552 29,34 C29,33.448 28.552,33 28,33 L25,33 L25,29 L35,29 C36.105,29 37,28.105 37,27 L37,7 C37,5.895 36.105,5 35,5 Z M23,33 L17,33 L17,29 L23,29 L23,33 Z M35,27 L5,27 L5,7 L35,7 L35,27 Z M20,25 C24.418,25 28,21.418 28,17 C28,12.582 24.418,9 20,9 C15.582,9 12,12.582 12,17 C12,21.418 15.582,25 20,25 Z M20,11 C23.309,11 26,13.691 26,17 C26,20.309 23.309,23 20,23 C16.691,23 14,20.309 14,17 C14,13.691 16.691,11 20,11 Z M20,21 C22.206,21 24,19.206 24,17 C24,14.794 22.206,13 20,13 C17.794,13 16,14.794 16,17 C16,19.206 17.794,21 20,21 Z M20,15 C21.103,15 22,15.897 22,17 C22,18.103 21.103,19 20,19 C18.897,19 18,18.103 18,17 C18,15.897 18.897,15 20,15 Z"></path>
    </g>
</svg>
